<svg xmlns="http://www.w3.org/2000/svg" viewBox="0 0 360.68 112.63"><defs><style>.cls-1{fill:#b5d335;stroke:#fff;stroke-miterlimit:10;}.cls-11,.cls-2,.cls-4,.cls-50,.cls-60,.cls-67,.cls-7{fill:#fff;}.cls-3{fill:#b5d334;}.cls-4{font-size:19.05px;}.cls-11,.cls-15,.cls-16,.cls-18,.cls-21,.cls-30,.cls-34,.cls-4,.cls-41,.cls-50,.cls-60,.cls-67,.cls-7{font-family:Gentona-Bold, Gentona;font-weight:700;}.cls-5{letter-spacing:-0.01em;}.cls-6{letter-spacing:-0.01em;}.cls-7{font-size:27.2px;}.cls-8{letter-spacing:-0.03em;}.cls-9{letter-spacing:-0.01em;}.cls-10{letter-spacing:-0.01em;}.cls-11{font-size:9.76px;}.cls-12,.cls-13,.cls-14{fill:none;}.cls-12{stroke:#6d6e71;stroke-width:2.17px;}.cls-13{stroke:#b5d334;stroke-width:2.23px;}.cls-14{stroke:#0098be;stroke-width:2.79px;}.cls-15{font-size:14.53px;}.cls-15,.cls-18,.cls-21,.cls-30,.cls-34,.cls-41{fill:#6d6e71;}.cls-16{font-size:34.23px;fill:#00b3df;letter-spacing:-0.02em;}.cls-17{letter-spacing:0em;}.cls-18{font-size:11.78px;letter-spacing:0.01em;}.cls-19{letter-spacing:0.01em;}.cls-20{letter-spacing:0em;}.cls-21{font-size:6.11px;}.cls-22{letter-spacing:0.02em;}.cls-23{letter-spacing:0.01em;}.cls-24{letter-spacing:0.01em;}.cls-25{letter-spacing:0.02em;}.cls-26{letter-spacing:0.02em;}.cls-27{letter-spacing:0.02em;}.cls-28{letter-spacing:0em;}.cls-29{letter-spacing:0.01em;}.cls-30{font-size:14.57px;}.cls-31{letter-spacing:-0.02em;}.cls-32{letter-spacing:-0.01em;}.cls-33{letter-spacing:-0.01em;}.cls-34{font-size:9.5px;letter-spacing:0.01em;}.cls-35{letter-spacing:-0.01em;}.cls-36{letter-spacing:0.01em;}.cls-37{letter-spacing:0em;}.cls-38{letter-spacing:0.01em;}.cls-39{letter-spacing:0.03em;}.cls-40{letter-spacing:0em;}.cls-41{font-size:6.59px;letter-spacing:0.01em;}.cls-42{letter-spacing:-0.01em;}.cls-43{letter-spacing:0.01em;}.cls-44{letter-spacing:0.03em;}.cls-45{letter-spacing:0.01em;}.cls-46{letter-spacing:0.01em;}.cls-47{letter-spacing:0.01em;}.cls-48{letter-spacing:0.02em;}.cls-49{letter-spacing:0em;}.cls-50{font-size:11px;}.cls-51{letter-spacing:0.02em;}.cls-52{letter-spacing:0.02em;}.cls-53{letter-spacing:0.02em;}.cls-54{letter-spacing:0.02em;}.cls-55{letter-spacing:0em;}.cls-56{letter-spacing:-0.01em;}.cls-57{letter-spacing:0.01em;}.cls-58{letter-spacing:-0.01em;}.cls-59{letter-spacing:0.01em;}.cls-60{font-size:11.9px;}.cls-61{letter-spacing:0.01em;}.cls-62{letter-spacing:-0.01em;}.cls-63{letter-spacing:0.01em;}.cls-64{letter-spacing:0.04em;}.cls-65{letter-spacing:0.01em;}.cls-66{letter-spacing:0.02em;}.cls-67{font-size:35.88px;}.cls-68{letter-spacing:-0.06em;}.cls-69{letter-spacing:-0.05em;}</style></defs><g id="Слой_2" data-name="Слой 2"><g id="Layer_1" data-name="Layer 1"><path class="cls-1" d="M312.34,101.1a47.85,47.85,0,1,0-47.85-47.84,47.84,47.84,0,0,0,47.85,47.84"/><path class="cls-2" d="M76.83,54.05a2.25,2.25,0,0,1-2.25,2.25h-9a27.67,27.67,0,0,0,0-40.44h9a2.25,2.25,0,0,1,2.25,2.25ZM60.76,56.3A24.65,24.65,0,1,1,38.52,12.81a24.73,24.73,0,0,1,16.29,0A24.65,24.65,0,0,1,60.76,56.3M14,56.3V39.72a1.53,1.53,0,0,0-3.05,0V56.3H7a2.25,2.25,0,0,1-2.25-2.25V18.11A2.25,2.25,0,0,1,7,15.86H27.74a27.65,27.65,0,0,0,0,40.44ZM10.31,9.64a.18.18,0,0,1,.19-.18H21a.18.18,0,0,1,.19.18v3.17H10.31ZM30.52,6.05a3.79,3.79,0,0,1,3.73-3H59.08a3.79,3.79,0,0,1,3.72,3l1.5,6.76H61.69a27.64,27.64,0,0,0-30,0H29Zm44.06,6.76H67.42L65.78,5.39A6.82,6.82,0,0,0,59.08,0H34.25a6.82,6.82,0,0,0-6.71,5.39L25.9,12.81H24.2V9.64A3.25,3.25,0,0,0,21,6.4H10.5A3.25,3.25,0,0,0,7.26,9.64v3.17H7a5.31,5.31,0,0,0-5.3,5.3V54.05A5.32,5.32,0,0,0,7,59.36H31.64a27.69,27.69,0,0,0,30.05,0H74.58a5.32,5.32,0,0,0,5.3-5.31V18.11a5.31,5.31,0,0,0-5.3-5.3"/><path class="cls-3" d="M46.66,16a20,20,0,1,0,4.77,39.51,1.52,1.52,0,1,0-.73-3,17,17,0,1,1,10-7,1.52,1.52,0,1,0,2.52,1.71A20,20,0,0,0,46.66,16"/><path class="cls-3" d="M12.46,27.27a2.63,2.63,0,1,1,2.63-2.63,2.63,2.63,0,0,1-2.63,2.63m0-8.31a5.69,5.69,0,1,0,5.68,5.68A5.7,5.7,0,0,0,12.46,19"/><path class="cls-2" d="M58.9,50.52a1.35,1.35,0,0,0-.15-.26,1.37,1.37,0,0,0-.18-.24,1.55,1.55,0,0,0-.24-.19l-.26-.14-.28-.08a1.51,1.51,0,0,0-.6,0l-.29.08-.26.14a2.11,2.11,0,0,0-.23.19,1.43,1.43,0,0,0-.19.24.94.94,0,0,0-.14.26,1.52,1.52,0,0,0-.09.28,1.71,1.71,0,0,0,0,.31,1.5,1.5,0,0,0,0,.29,1.4,1.4,0,0,0,.09.29.94.94,0,0,0,.14.26.87.87,0,0,0,.19.23,1.37,1.37,0,0,0,.23.19,1.3,1.3,0,0,0,.26.14,1.4,1.4,0,0,0,.29.09l.3,0,.3,0a1.52,1.52,0,0,0,.28-.09,1.3,1.3,0,0,0,.26-.14,1.12,1.12,0,0,0,.24-.19A1.52,1.52,0,0,0,59,51.11a1.71,1.71,0,0,0,0-.31c0-.09,0-.19-.08-.28"/><text class="cls-4" transform="translate(1.16 81.6)"><tspan class="cls-5">TR</tspan><tspan class="cls-6" x="22.21" y="0">U</tspan><tspan class="cls-5" x="34.65" y="0">ST</tspan><tspan class="cls-6" x="56.37" y="0">E</tspan><tspan x="66.85" y="0">D</tspan></text><text class="cls-7" transform="translate(0 100.98)"><tspan class="cls-8">L</tspan><tspan class="cls-9" x="13.36" y="0">OC</tspan><tspan class="cls-10" x="48.1" y="0">A</tspan><tspan x="66.76" y="0">L</tspan></text><text class="cls-11" transform="translate(75.22 110.34)">S</text><text class="cls-11" transform="translate(69.18 110.34)">R</text><text class="cls-11" transform="translate(63.56 110.34)">E</text><text class="cls-11" transform="translate(56.85 110.34)">H</text><text class="cls-11" transform="translate(51.36 110.34)">P</text><text class="cls-11" transform="translate(44.48 110.34)">A</text><text class="cls-11" transform="translate(38.23 110.34)">R</text><text class="cls-11" transform="translate(31.49 110.34)">G</text><text class="cls-11" transform="translate(24.71 110.34)">O</text><text class="cls-11" transform="translate(19.44 110.34)">T</text><text class="cls-11" transform="translate(13.09 110.34)">O</text><text class="cls-11" transform="translate(6.4 110.34)">H</text><text class="cls-11" transform="translate(0.52 110.34)">P</text><rect class="cls-2" x="156.06" y="37.84" width="50.42" height="50.42" transform="translate(-9.97 79.18) rotate(-24)"/><rect class="cls-12" x="156.06" y="37.84" width="50.42" height="50.42" transform="translate(-9.97 79.18) rotate(-24)"/><rect class="cls-2" x="180.98" y="14.59" width="51.88" height="51.88" transform="translate(144.98 242.08) rotate(-84)"/><rect class="cls-13" x="180.98" y="14.59" width="51.88" height="51.88" transform="translate(144.98 242.08) rotate(-84)"/><rect class="cls-2" x="115.41" y="17.35" width="64.82" height="64.82" transform="translate(-7.12 31.83) rotate(-12)"/><rect class="cls-14" x="115.41" y="17.35" width="64.82" height="64.82" transform="translate(-7.12 31.83) rotate(-12)"/><text class="cls-15" transform="matrix(0.98, -0.21, 0.21, 0.98, 151.46, 34.08)">R</text><text class="cls-15" transform="matrix(0.98, -0.21, 0.21, 0.98, 143.73, 35.72)">E</text><text class="cls-15" transform="matrix(0.98, -0.21, 0.21, 0.98, 134.54, 37.68)">V</text><text class="cls-15" transform="matrix(0.98, -0.21, 0.21, 0.98, 125.52, 39.59)">O</text><text class="cls-16" transform="matrix(0.98, -0.21, 0.21, 0.98, 130.77, 62.28)">2<tspan class="cls-17" x="17.66" y="0">5</tspan></text><text class="cls-18" transform="matrix(0.98, -0.21, 0.21, 0.98, 132.71, 71.01)">Y<tspan class="cls-19" x="7.58" y="0">E</tspan><tspan x="14.29" y="0">AR</tspan><tspan class="cls-20" x="29.77" y="0">S</tspan></text><text class="cls-21" transform="matrix(0.98, -0.21, 0.21, 0.98, 134.78, 75.91)"><tspan class="cls-22">E</tspan><tspan class="cls-23" x="3.52" y="0">X</tspan><tspan class="cls-24" x="7.61" y="0">P</tspan><tspan class="cls-25" x="11.3" y="0">E</tspan><tspan class="cls-26" x="14.83" y="0">R</tspan><tspan class="cls-27" x="18.67" y="0">I</tspan><tspan class="cls-22" x="20.48" y="0">E</tspan><tspan class="cls-28" x="24.01" y="0">N</tspan><tspan class="cls-29" x="28.19" y="0">C</tspan><tspan x="31.99" y="0">E</tspan></text><text class="cls-30" transform="translate(188.59 35.86) rotate(6)"><tspan class="cls-31">1</tspan><tspan class="cls-32" x="7.06" y="0">0</tspan><tspan class="cls-33" x="16.05" y="0">0</tspan><tspan x="24.95" y="0">%</tspan></text><text class="cls-34" transform="translate(186.59 43.34) rotate(6)">Q<tspan class="cls-35" x="6.47" y="0">U</tspan><tspan class="cls-36" x="12.65" y="0">A</tspan><tspan class="cls-37" x="19.34" y="0">L</tspan><tspan class="cls-38" x="24.3" y="0">I</tspan><tspan class="cls-39" x="27" y="0">T</tspan><tspan class="cls-40" x="32.74" y="0">Y</tspan></text><text class="cls-41" transform="translate(186.45 50.43) rotate(6)">G<tspan class="cls-42" x="4.53" y="0">U</tspan><tspan class="cls-43" x="8.82" y="0">A</tspan><tspan class="cls-44" x="13.48" y="0">R</tspan><tspan class="cls-45" x="17.71" y="0">A</tspan><tspan class="cls-46" x="22.38" y="0">N</tspan><tspan class="cls-47" x="26.95" y="0">T</tspan><tspan class="cls-48" x="30.79" y="0">E</tspan><tspan class="cls-49" x="34.6" y="0">E</tspan></text><text class="cls-50" transform="translate(278.62 63.99)"><tspan class="cls-51">M</tspan><tspan class="cls-52" x="9.36" y="0">O</tspan><tspan class="cls-53" x="17.11" y="0">N</tspan><tspan class="cls-54" x="24.89" y="0">E</tspan><tspan class="cls-55" x="31.24" y="0">Y</tspan><tspan class="cls-56" x="38.21" y="0"> </tspan><tspan class="cls-57" x="40.36" y="0">B</tspan><tspan class="cls-58" x="47.09" y="0">A</tspan><tspan class="cls-59" x="54.65" y="0">C</tspan><tspan x="61.55" y="0">K</tspan></text><text class="cls-60" transform="translate(278.3 73.9)"><tspan class="cls-61">G</tspan><tspan class="cls-62" x="8.18" y="0">U</tspan><tspan class="cls-63" x="15.94" y="0">A</tspan><tspan class="cls-64" x="24.37" y="0">R</tspan><tspan class="cls-63" x="32.05" y="0">A</tspan><tspan class="cls-65" x="40.48" y="0">NT</tspan><tspan class="cls-66" x="55.72" y="0">E</tspan><tspan x="62.6" y="0">E</tspan></text><text class="cls-67" transform="translate(278.64 52.52)"><tspan class="cls-68">1</tspan><tspan class="cls-69" x="15.93" y="0">0</tspan><tspan x="36.63" y="0">0</tspan></text></g></g></svg>